<?xml version="1.0" encoding="UTF-8" standalone="no"?>
<!DOCTYPE svg PUBLIC "-//W3C//DTD SVG 1.1//EN" "http://www.w3.org/Graphics/SVG/1.1/DTD/svg11.dtd">
<svg version="1.1" xmlns="http://www.w3.org/2000/svg" xmlns:xlink="http://www.w3.org/1999/xlink" preserveAspectRatio="xMidYMid meet" viewBox="0 0 640 640" width="640" height="640"><defs><path d="M504.23 323.31C513.69 323.31 521.34 315.63 521.34 306.17C521.34 296.71 513.69 289.06 504.23 289.06C466.43 289.06 163.95 289.06 126.14 289.06C116.68 289.06 109 296.71 109 306.17C109 315.63 116.68 323.31 126.14 323.31C201.76 323.31 428.62 323.31 504.23 323.31Z" id="a2MBavJnnP"></path><path d="M336.93 117.14C336.93 107.68 328.21 100 317.48 100C306.74 100 298.06 107.68 298.06 117.14C298.06 154.95 298.06 457.42 298.06 495.23C298.06 504.69 306.74 512.34 317.48 512.34C328.21 512.34 336.93 504.69 336.93 495.23C336.93 419.61 336.93 192.76 336.93 117.14Z" id="bn9XJmdl1"></path></defs><g><g><g><use xlink:href="#a2MBavJnnP" opacity="1" fill="#cbcbcf" fill-opacity="1"></use><g><use xlink:href="#a2MBavJnnP" opacity="1" fill-opacity="0" stroke="#000000" stroke-width="1" stroke-opacity="0"></use></g></g><g><use xlink:href="#bn9XJmdl1" opacity="1" fill="#cbcbcf" fill-opacity="1"></use><g><use xlink:href="#bn9XJmdl1" opacity="1" fill-opacity="0" stroke="#000000" stroke-width="1" stroke-opacity="0"></use></g></g></g></g></svg>